<svg width="67" height="28" viewBox="0 0 67 28" fill="none" xmlns="http://www.w3.org/2000/svg">
<path d="M37.3515 4.32873L33.5123 8.47948L37.4332 12.7123H34.2066L30.3267 8.56155L34.3292 4.2876L37.3515 4.32873Z" fill="white"/>
<path d="M38.0049 12.9589H34.0842L30 8.56158L34.2066 4.04102L37.8824 4.08215L33.7982 8.47951L38.0049 12.9589ZM34.2884 12.5068H36.9022L33.1856 8.47951L36.8205 4.57539L34.4108 4.53425L30.6126 8.60272L34.2884 12.5068Z" fill="white"/>
<path d="M41.8848 4.24634C39.7202 4.24634 38.0049 6.13688 38.0049 8.47935C38.0049 10.8218 39.7611 12.7122 41.8848 12.7122C44.0086 12.7122 45.7648 10.8218 45.7648 8.47935C45.7648 6.13688 44.0494 4.24634 41.8848 4.24634ZM41.8848 10.9451C40.6596 10.9451 39.6385 9.83552 39.6385 8.47935C39.6385 7.12318 40.6596 6.01359 41.8848 6.01359C43.1101 6.01359 44.1311 7.12318 44.1311 8.47935C44.1311 9.83552 43.1509 10.9451 41.8848 10.9451Z" fill="white"/>
<path d="M41.8848 12.9589C39.5977 12.9589 37.7599 10.9452 37.7599 8.47943C37.7599 6.01367 39.5977 4 41.8848 4C44.172 4 46.0099 6.01367 46.0099 8.47943C46.0507 10.9863 44.172 12.9589 41.8848 12.9589ZM41.8848 4.49303C39.8836 4.49303 38.2091 6.30134 38.2091 8.47943C38.2091 10.6986 39.8428 12.4656 41.8848 12.4656C43.8861 12.4656 45.5606 10.6575 45.5606 8.47943C45.5606 6.30134 43.9269 4.49303 41.8848 4.49303ZM41.8848 11.1918C40.4962 11.1918 39.3936 10 39.3936 8.52057C39.3936 7.04111 40.4962 5.84932 41.8848 5.84932C43.2734 5.84932 44.3762 7.04111 44.3762 8.52057C44.3762 10 43.2734 11.1918 41.8848 11.1918ZM41.8848 6.30122C40.7821 6.30122 39.8836 7.28769 39.8836 8.52057C39.8836 9.75345 40.7821 10.7397 41.8848 10.7397C42.9876 10.7397 43.8861 9.75345 43.8861 8.52057C43.8861 7.28769 43.0284 6.30122 41.8848 6.30122Z" fill="white"/>
<path d="M54.4641 6.83563C53.8514 5.35618 52.667 4.49308 50.9517 4.2876H47.6027V12.7534H50.87C52.7487 12.6712 53.9331 11.8905 54.5457 10.3288C54.9133 9.21921 54.9133 7.94523 54.4641 6.83563ZM52.7079 9.34254C52.422 10.0412 51.8911 10.452 50.9925 10.452H49.4814V6.54788H51.0334C51.8502 6.63007 52.3812 7.04099 52.6671 7.73963C52.9121 8.23278 52.9121 8.84938 52.7079 9.34254Z" fill="white"/>
<path d="M47.5619 13.0001H47.3168V4.04102H50.9516C52.7487 4.2465 54.0148 5.19175 54.6683 6.7534C55.1584 7.90409 55.1584 9.26022 54.7091 10.4109C54.0965 12.0547 52.7896 12.9179 50.8292 13.0001H47.5619ZM47.8069 12.5068H50.8292C52.5854 12.4247 53.7289 11.6849 54.2598 10.2466C54.6683 9.17806 54.6274 7.98628 54.219 6.95888C53.6063 5.52051 52.5445 4.73973 50.9109 4.53425H47.8069V12.5068ZM49.5222 10.6987H49.2772V6.3013H51.1151C52.0136 6.42459 52.6262 6.87672 52.9529 7.61645C53.198 8.1918 53.1979 8.8493 52.9937 9.42464C52.667 10.2466 52.0544 10.6576 51.0742 10.6987H49.5222ZM49.5631 10.452H51.0334C51.8911 10.4109 52.422 10.0412 52.7078 9.34257C52.9121 8.80832 52.9121 8.23298 52.6671 7.69873C52.3812 7.00009 51.8502 6.63007 51.0334 6.50678H49.5631V10.452Z" fill="white"/>
<path d="M60.1411 11.1506C59.1609 11.1506 58.385 10.3697 58.385 9.38335H62.755V7.78064H58.385C58.385 6.79433 59.1609 6.01359 60.1411 6.01359H62.755V4.24634H60.3861C58.5891 4.45182 57.4048 5.31492 56.7513 6.79437C56.2612 7.90397 56.2611 9.17795 56.7104 10.2875C57.323 11.8081 58.5891 12.63 60.5087 12.7122H62.7958V11.1506H60.1411Z" fill="white"/>
<path d="M62.9999 12.9589H60.4678C58.4665 12.8767 57.1188 12.0137 56.4653 10.3699C56.016 9.2192 56.0161 7.86287 56.5062 6.71218C57.2005 5.15053 58.4665 4.20548 60.3452 4H60.3861H62.9999V6.21915H60.141C59.4059 6.21915 58.7525 6.79453 58.6708 7.49317H62.9999V9.58891H58.6708C58.7933 10.3286 59.4059 10.8629 60.141 10.8629H62.9999V12.9589ZM60.3861 4.49303C58.6708 4.69851 57.5681 5.4793 56.9555 6.91766C56.5062 7.98616 56.4653 9.17795 56.9146 10.2053C57.4864 11.6848 58.6708 12.4245 60.4678 12.4656H62.5099V11.3562H60.141C59.0383 11.3562 58.1807 10.4519 58.1807 9.38343V9.13701H62.5507V7.9862H58.1807V7.73958C58.1807 6.62999 59.0792 5.76705 60.141 5.76705H62.5099V4.49303H60.3861Z" fill="white"/>
<path d="M38.8056 18.9314C38.1433 17.5277 36.8188 16.702 34.9738 16.4956H31.2839V24.5461H34.8791C36.9133 24.4636 38.2379 23.7204 38.9002 22.2341C39.3259 21.1607 39.2786 19.9635 38.8056 18.9314ZM36.9133 21.3258C36.6295 21.9864 36.0145 22.358 35.0684 22.3992H33.4127V18.6836H35.1157C35.9672 18.7662 36.5822 19.1378 36.9133 19.7984C37.1025 20.2525 37.1025 20.8304 36.9133 21.3258Z" fill="#EA2831"/>
<path d="M31.2365 24.7524H31V16.2891H34.9738C36.9606 16.4955 38.3324 17.3623 39.042 18.8486C39.5624 19.9633 39.6098 21.2018 39.0894 22.3165C38.3798 23.8853 36.9606 24.7112 34.8318 24.7524H31.2365ZM31.5204 24.2983H34.8318C36.7714 24.257 38.0014 23.5138 38.6163 22.1514C39.0421 21.1605 39.042 20.0045 38.569 19.0137C37.9067 17.6513 36.7241 16.9083 34.9264 16.7019H31.5204V24.2983ZM33.3653 22.6056H33.1288V18.4357H35.1156C36.0617 18.5183 36.7714 18.9725 37.1026 19.7156C37.3391 20.2523 37.3863 20.8716 37.1498 21.4083C36.8187 22.1927 36.1091 22.5643 35.0684 22.6056H33.3653ZM33.4127 22.3578H35.021C35.9671 22.3165 36.5822 21.9862 36.866 21.3257C37.1026 20.8303 37.0552 20.2524 36.8187 19.7983C36.4875 19.1377 35.9198 18.7661 35.021 18.6835H33.4127V22.3578Z" fill="#EA2831"/>
<path d="M45.4758 16.2478C42.9685 16.2478 40.9817 18.1468 40.9817 20.5001C40.9817 22.8533 43.0159 24.7525 45.4758 24.7525C47.983 24.7525 49.9699 22.8533 49.9699 20.5001C49.9699 18.1881 47.9357 16.2478 45.4758 16.2478ZM45.4758 22.9771C44.0566 22.9771 42.8739 21.8625 42.8739 20.5414C42.8739 19.179 44.0566 18.1056 45.4758 18.1056C46.895 18.1056 48.0776 19.2203 48.0776 20.5414C48.0776 21.8625 46.895 22.9771 45.4758 22.9771Z" fill="#EA2831"/>
<path d="M45.4757 25C42.8266 25 40.6978 22.9771 40.6978 20.5C40.6978 18.0229 42.8266 16 45.4757 16C48.1249 16 50.2536 18.0229 50.2536 20.5C50.2536 22.9771 48.0776 25 45.4757 25ZM45.4757 16.4955C43.1577 16.4955 41.2182 18.3119 41.2182 20.5C41.2182 22.7294 43.1104 24.5047 45.4757 24.5047C47.7937 24.5047 49.7333 22.6881 49.7333 20.5C49.686 18.3119 47.7937 16.4955 45.4757 16.4955ZM45.4757 23.1835C43.8673 23.1835 42.59 21.9863 42.59 20.5C42.59 19.0137 43.8673 17.8165 45.4757 17.8165C47.0841 17.8165 48.3613 19.0137 48.3613 20.5C48.3613 21.9863 47.0368 23.1835 45.4757 23.1835ZM45.4757 18.312C44.1985 18.312 43.1576 19.3028 43.1576 20.5413C43.1576 21.7799 44.1985 22.7707 45.4757 22.7707C46.753 22.7707 47.7937 21.7799 47.7937 20.5413C47.7937 19.3028 46.753 18.312 45.4757 18.312Z" fill="#EA2831"/>
<path d="M62.222 16.2478C59.7148 16.2478 57.7279 18.1468 57.7279 20.5001C57.7279 22.8533 59.7621 24.7525 62.222 24.7525C64.6819 24.7525 66.7161 22.8533 66.7161 20.5001C66.7634 18.1881 64.7292 16.2478 62.222 16.2478ZM62.222 22.9771C60.8028 22.9771 59.6201 21.8625 59.6201 20.5414C59.6201 19.179 60.8028 18.1056 62.222 18.1056C63.6412 18.1056 64.8238 19.2203 64.8238 20.5414C64.8238 21.8625 63.6885 22.9771 62.222 22.9771Z" fill="#EA2831"/>
<path d="M62.2221 25C59.5729 25 57.4442 22.9771 57.4442 20.5C57.4442 18.0229 59.5729 16 62.2221 16C64.8712 16 67 18.0229 67 20.5C67 22.9771 64.8712 25 62.2221 25ZM62.2221 16.4955C59.9041 16.4955 57.9645 18.3119 57.9645 20.5C57.9645 22.7294 59.8568 24.5047 62.2221 24.5047C64.5401 24.5047 66.4796 22.6881 66.4796 20.5C66.4796 18.3119 64.5874 16.4955 62.2221 16.4955ZM62.2221 23.1835C60.6137 23.1835 59.3365 21.9863 59.3365 20.5C59.3365 19.0137 60.6137 17.8165 62.2221 17.8165C63.8305 17.8165 65.1078 19.0137 65.1078 20.5C65.1078 21.9863 63.8305 23.1835 62.2221 23.1835ZM62.2221 18.312C60.9448 18.312 59.9041 19.3028 59.9041 20.5413C59.9041 21.7799 60.9448 22.7707 62.2221 22.7707C63.4993 22.7707 64.5401 21.7799 64.5401 20.5413C64.5874 19.3028 63.4993 18.312 62.2221 18.312Z" fill="#EA2831"/>
<path d="M53.6597 16.2891V22.4818C53.6597 22.7296 53.4231 22.9358 53.1392 22.9358H51.8147L50.8685 24.7525H53.6597C54.795 24.7525 55.7411 23.9266 55.7411 22.9358V16.2478H53.6597V16.2891Z" fill="#EA2831"/>
<path d="M53.6597 25.0001H50.4429L51.6255 22.7295H53.0919C53.2339 22.7295 53.3285 22.6469 53.3285 22.523V16.0828H55.9303V22.9772C56.0249 24.0919 54.9843 25.0001 53.6597 25.0001ZM51.2944 24.5048H53.6597C54.6531 24.5048 55.4572 23.8029 55.4572 22.9359V16.4956H53.9435V22.4819C53.9435 22.8535 53.5651 23.1836 53.1393 23.1836H52.004L51.2944 24.5048Z" fill="#EA2831"/>
<path d="M14 28C21.732 28 28 21.732 28 14C28 6.26801 21.732 0 14 0C6.26801 0 0 6.26801 0 14C0 21.732 6.26801 28 14 28Z" fill="black"/>
<path d="M2.63525 14.677H25.3097L13.9817 4.81299L2.63525 14.677Z" fill="#D21F26"/>
<path opacity="0.2" d="M8.58305 14.2195L13.9817 5.27051L3.91638 14.2195" fill="black"/>
<path d="M16.7816 8.01562L23.5163 14H22.345L16.7816 8.01562Z" fill="white"/>
<mask id="mask0_3_11" style="mask-type:luminance" maskUnits="userSpaceOnUse" x="14" y="20" width="3" height="3">
<path d="M14.0183 20.936H16.1961V22.3451H14.0183V20.936Z" fill="white"/>
</mask>
<g mask="url(#mask0_3_11)">
<path d="M14.0183 20.936H15.3359L16.1961 22.3451C16.1961 22.3451 15.3543 22.4184 15.1163 22.1073C14.8784 21.7961 14.0366 21.8327 14.0366 21.8327" fill="#D21F26"/>
</g>
<mask id="mask1_3_11" style="mask-type:luminance" maskUnits="userSpaceOnUse" x="11" y="20" width="3" height="3">
<path d="M14 20.936H11.8223V22.3451H14V20.936Z" fill="white"/>
</mask>
<g mask="url(#mask1_3_11)">
<path d="M14 20.936H12.6824L11.8223 22.3451C11.8223 22.3451 12.6641 22.4184 12.902 22.1073C13.1399 21.7961 13.9818 21.8327 13.9818 21.8327" fill="#D21F26"/>
</g>
<path d="M13.8536 20.936H14.1465V21.8327H13.8903L13.8536 20.936Z" fill="#D21F26"/>
<mask id="mask2_3_11" style="mask-type:luminance" maskUnits="userSpaceOnUse" x="13" y="15" width="7" height="5">
<path d="M13.9817 15.7202H19.0326V19.7464H13.9817V15.7202Z" fill="white"/>
</mask>
<g mask="url(#mask2_3_11)">
<path d="M13.9817 19.7464L14.8235 19.0875C14.8235 19.0875 16.6353 20.149 17.8065 19.4718C18.9778 18.7764 19.051 15.7385 19.051 15.7385H18.4287L16.0679 17.4038L14.4026 16.3607H13.9817" fill="#D21F26"/>
</g>
<mask id="mask3_3_11" style="mask-type:luminance" maskUnits="userSpaceOnUse" x="8" y="15" width="6" height="5">
<path d="M13.9634 15.7202H8.91235V19.7464H13.9634V15.7202Z" fill="white"/>
</mask>
<g mask="url(#mask3_3_11)">
<path d="M13.9634 19.7464L13.1216 19.0875C13.1216 19.0875 11.3099 20.149 10.1386 19.4718C8.96738 18.7764 8.89417 15.7385 8.89417 15.7385H9.51637L11.8772 17.4038L13.5425 16.3607H13.9634" fill="#D21F26"/>
</g>
<path d="M13.8353 16.3606H14.1098V19.5266L13.9817 19.7462L13.8536 19.5266L13.8353 16.3606Z" fill="#D21F26"/>
</svg>
